<mxfile host="app.diagrams.net" agent="Mozilla/5.0 (Macintosh; Intel Mac OS X 10_15_7) AppleWebKit/537.36 (KHTML, like Gecko) Chrome/137.0.0.0 Safari/537.36" version="27.2.0">
  <diagram id="bAHGwM8SDz6ife-2x0PP" name="Page-2">
    <mxGraphModel dx="2086" dy="1930" grid="1" gridSize="10" guides="1" tooltips="1" connect="1" arrows="1" fold="1" page="0" pageScale="1" pageWidth="1169" pageHeight="827" math="0" shadow="0">
      <root>
        <mxCell id="0" />
        <mxCell id="1" parent="0" />
        <mxCell id="9yW6cP3k6XNtZJr0AF5J-2" value="Deployment Workflow" style="text;html=1;align=center;verticalAlign=middle;whiteSpace=wrap;rounded=0;" parent="1" vertex="1">
          <mxGeometry x="-680" y="-550" width="150" height="50" as="geometry" />
        </mxCell>
        <mxCell id="9yW6cP3k6XNtZJr0AF5J-25" style="edgeStyle=none;curved=1;rounded=0;orthogonalLoop=1;jettySize=auto;html=1;exitX=1;exitY=0.5;exitDx=0;exitDy=0;entryX=0;entryY=0.5;entryDx=0;entryDy=0;fontSize=12;startSize=8;endSize=8;" parent="1" source="9yW6cP3k6XNtZJr0AF5J-5" target="9yW6cP3k6XNtZJr0AF5J-8" edge="1">
          <mxGeometry relative="1" as="geometry" />
        </mxCell>
        <mxCell id="9yW6cP3k6XNtZJr0AF5J-5" value="" style="rounded=1;whiteSpace=wrap;html=1;" parent="1" vertex="1">
          <mxGeometry x="-670" y="-490" width="120" height="60" as="geometry" />
        </mxCell>
        <mxCell id="9yW6cP3k6XNtZJr0AF5J-6" value="Development" style="text;html=1;align=center;verticalAlign=middle;whiteSpace=wrap;rounded=0;" parent="1" vertex="1">
          <mxGeometry x="-640" y="-475" width="60" height="30" as="geometry" />
        </mxCell>
        <mxCell id="9yW6cP3k6XNtZJr0AF5J-8" value="" style="rounded=1;whiteSpace=wrap;html=1;" parent="1" vertex="1">
          <mxGeometry x="-500" y="-490" width="110" height="60" as="geometry" />
        </mxCell>
        <mxCell id="9yW6cP3k6XNtZJr0AF5J-9" value="PR -&amp;gt; UAT" style="text;html=1;align=center;verticalAlign=middle;whiteSpace=wrap;rounded=0;" parent="1" vertex="1">
          <mxGeometry x="-480" y="-475" width="60" height="30" as="geometry" />
        </mxCell>
        <mxCell id="9yW6cP3k6XNtZJr0AF5J-27" style="edgeStyle=none;curved=1;rounded=0;orthogonalLoop=1;jettySize=auto;html=1;exitX=1;exitY=0;exitDx=0;exitDy=0;entryX=0;entryY=0.75;entryDx=0;entryDy=0;fontSize=12;startSize=8;endSize=8;" parent="1" source="9yW6cP3k6XNtZJr0AF5J-10" target="9yW6cP3k6XNtZJr0AF5J-13" edge="1">
          <mxGeometry relative="1" as="geometry" />
        </mxCell>
        <mxCell id="9yW6cP3k6XNtZJr0AF5J-10" value="" style="rounded=1;whiteSpace=wrap;html=1;" parent="1" vertex="1">
          <mxGeometry x="-480" y="-380" width="120" height="130" as="geometry" />
        </mxCell>
        <mxCell id="9yW6cP3k6XNtZJr0AF5J-11" value="- CI Job&lt;div&gt;- Data-diff report in PR&lt;/div&gt;&lt;div&gt;-Manual Approval&lt;/div&gt;" style="text;html=1;align=center;verticalAlign=middle;whiteSpace=wrap;rounded=0;" parent="1" vertex="1">
          <mxGeometry x="-475" y="-330" width="110" height="30" as="geometry" />
        </mxCell>
        <mxCell id="9yW6cP3k6XNtZJr0AF5J-28" style="edgeStyle=none;curved=1;rounded=0;orthogonalLoop=1;jettySize=auto;html=1;exitX=1;exitY=0.5;exitDx=0;exitDy=0;entryX=0;entryY=0.5;entryDx=0;entryDy=0;fontSize=12;startSize=8;endSize=8;" parent="1" source="9yW6cP3k6XNtZJr0AF5J-13" target="9yW6cP3k6XNtZJr0AF5J-14" edge="1">
          <mxGeometry relative="1" as="geometry" />
        </mxCell>
        <mxCell id="9yW6cP3k6XNtZJr0AF5J-13" value="" style="rounded=1;whiteSpace=wrap;html=1;" parent="1" vertex="1">
          <mxGeometry x="-300" y="-490" width="120" height="60" as="geometry" />
        </mxCell>
        <mxCell id="9yW6cP3k6XNtZJr0AF5J-14" value="" style="rounded=1;whiteSpace=wrap;html=1;" parent="1" vertex="1">
          <mxGeometry x="-110" y="-490" width="120" height="60" as="geometry" />
        </mxCell>
        <mxCell id="9yW6cP3k6XNtZJr0AF5J-30" style="edgeStyle=none;curved=1;rounded=0;orthogonalLoop=1;jettySize=auto;html=1;exitX=1;exitY=0;exitDx=0;exitDy=0;entryX=0;entryY=1;entryDx=0;entryDy=0;fontSize=12;startSize=8;endSize=8;" parent="1" source="9yW6cP3k6XNtZJr0AF5J-15" target="9yW6cP3k6XNtZJr0AF5J-17" edge="1">
          <mxGeometry relative="1" as="geometry" />
        </mxCell>
        <mxCell id="9yW6cP3k6XNtZJr0AF5J-15" value="" style="rounded=1;whiteSpace=wrap;html=1;" parent="1" vertex="1">
          <mxGeometry x="-30" y="-380" width="120" height="130" as="geometry" />
        </mxCell>
        <mxCell id="9yW6cP3k6XNtZJr0AF5J-16" value="- CI Job&lt;div&gt;- Data-diff report in PR&lt;/div&gt;&lt;div&gt;-Manual Approval&lt;/div&gt;" style="text;html=1;align=center;verticalAlign=middle;whiteSpace=wrap;rounded=0;" parent="1" vertex="1">
          <mxGeometry x="-25" y="-330" width="110" height="30" as="geometry" />
        </mxCell>
        <mxCell id="9yW6cP3k6XNtZJr0AF5J-17" value="" style="rounded=1;whiteSpace=wrap;html=1;" parent="1" vertex="1">
          <mxGeometry x="140" y="-490" width="110" height="60" as="geometry" />
        </mxCell>
        <mxCell id="9yW6cP3k6XNtZJr0AF5J-18" value="" style="rounded=1;whiteSpace=wrap;html=1;" parent="1" vertex="1">
          <mxGeometry x="320" y="-490" width="110" height="60" as="geometry" />
        </mxCell>
        <mxCell id="9yW6cP3k6XNtZJr0AF5J-19" value="" style="rounded=1;whiteSpace=wrap;html=1;" parent="1" vertex="1">
          <mxGeometry x="510" y="-490" width="110" height="60" as="geometry" />
        </mxCell>
        <mxCell id="9yW6cP3k6XNtZJr0AF5J-20" value="Merge into&lt;div&gt;Main&lt;/div&gt;" style="text;html=1;align=center;verticalAlign=middle;whiteSpace=wrap;rounded=0;" parent="1" vertex="1">
          <mxGeometry x="-295" y="-475" width="110" height="30" as="geometry" />
        </mxCell>
        <mxCell id="9yW6cP3k6XNtZJr0AF5J-21" value="PR -&amp;gt; Main" style="text;html=1;align=center;verticalAlign=middle;whiteSpace=wrap;rounded=0;" parent="1" vertex="1">
          <mxGeometry x="-85" y="-475" width="70" height="30" as="geometry" />
        </mxCell>
        <mxCell id="9yW6cP3k6XNtZJr0AF5J-31" style="edgeStyle=none;curved=1;rounded=0;orthogonalLoop=1;jettySize=auto;html=1;exitX=1;exitY=0.5;exitDx=0;exitDy=0;entryX=0;entryY=0.5;entryDx=0;entryDy=0;fontSize=12;startSize=8;endSize=8;" parent="1" source="9yW6cP3k6XNtZJr0AF5J-22" target="9yW6cP3k6XNtZJr0AF5J-23" edge="1">
          <mxGeometry relative="1" as="geometry" />
        </mxCell>
        <mxCell id="9yW6cP3k6XNtZJr0AF5J-22" value="Merge into&lt;div&gt;Main&lt;/div&gt;" style="text;html=1;align=center;verticalAlign=middle;whiteSpace=wrap;rounded=0;" parent="1" vertex="1">
          <mxGeometry x="140" y="-475" width="110" height="30" as="geometry" />
        </mxCell>
        <mxCell id="9yW6cP3k6XNtZJr0AF5J-32" style="edgeStyle=none;curved=1;rounded=0;orthogonalLoop=1;jettySize=auto;html=1;exitX=1;exitY=0.5;exitDx=0;exitDy=0;entryX=0;entryY=0.5;entryDx=0;entryDy=0;fontSize=12;startSize=8;endSize=8;" parent="1" source="9yW6cP3k6XNtZJr0AF5J-23" target="9yW6cP3k6XNtZJr0AF5J-24" edge="1">
          <mxGeometry relative="1" as="geometry" />
        </mxCell>
        <mxCell id="9yW6cP3k6XNtZJr0AF5J-23" value="CD Job" style="text;html=1;align=center;verticalAlign=middle;whiteSpace=wrap;rounded=0;" parent="1" vertex="1">
          <mxGeometry x="320" y="-475" width="110" height="30" as="geometry" />
        </mxCell>
        <mxCell id="9yW6cP3k6XNtZJr0AF5J-24" value="Nightly Run" style="text;html=1;align=center;verticalAlign=middle;whiteSpace=wrap;rounded=0;" parent="1" vertex="1">
          <mxGeometry x="510" y="-475" width="110" height="30" as="geometry" />
        </mxCell>
        <mxCell id="9yW6cP3k6XNtZJr0AF5J-26" style="edgeStyle=none;curved=1;rounded=0;orthogonalLoop=1;jettySize=auto;html=1;exitX=0.5;exitY=1;exitDx=0;exitDy=0;entryX=0.308;entryY=0.008;entryDx=0;entryDy=0;entryPerimeter=0;fontSize=12;startSize=8;endSize=8;" parent="1" source="9yW6cP3k6XNtZJr0AF5J-8" target="9yW6cP3k6XNtZJr0AF5J-10" edge="1">
          <mxGeometry relative="1" as="geometry" />
        </mxCell>
        <mxCell id="9yW6cP3k6XNtZJr0AF5J-29" style="edgeStyle=none;curved=1;rounded=0;orthogonalLoop=1;jettySize=auto;html=1;exitX=0.75;exitY=1;exitDx=0;exitDy=0;entryX=0.1;entryY=0.031;entryDx=0;entryDy=0;entryPerimeter=0;fontSize=12;startSize=8;endSize=8;" parent="1" source="9yW6cP3k6XNtZJr0AF5J-14" target="9yW6cP3k6XNtZJr0AF5J-15" edge="1">
          <mxGeometry relative="1" as="geometry" />
        </mxCell>
        <mxCell id="9yW6cP3k6XNtZJr0AF5J-33" value="Code Review" style="text;html=1;align=center;verticalAlign=middle;whiteSpace=wrap;rounded=0;" parent="1" vertex="1">
          <mxGeometry x="-495" y="-260" width="150" height="50" as="geometry" />
        </mxCell>
        <mxCell id="9yW6cP3k6XNtZJr0AF5J-34" value="Integration test" style="text;html=1;align=center;verticalAlign=middle;whiteSpace=wrap;rounded=0;" parent="1" vertex="1">
          <mxGeometry x="-45" y="-260" width="150" height="50" as="geometry" />
        </mxCell>
        <mxCell id="9yW6cP3k6XNtZJr0AF5J-36" value="Detailed Deployment Workflow" style="text;html=1;align=center;verticalAlign=middle;whiteSpace=wrap;rounded=0;" parent="1" vertex="1">
          <mxGeometry x="-670" y="-170" width="190" height="50" as="geometry" />
        </mxCell>
        <mxCell id="9yW6cP3k6XNtZJr0AF5J-37" value="" style="rounded=0;whiteSpace=wrap;html=1;" parent="1" vertex="1">
          <mxGeometry x="-660" y="-120" width="1290" height="130" as="geometry" />
        </mxCell>
        <mxCell id="9yW6cP3k6XNtZJr0AF5J-40" value="Snowflake Schemas" style="text;html=1;align=center;verticalAlign=middle;whiteSpace=wrap;rounded=0;" parent="1" vertex="1">
          <mxGeometry x="-665" y="-130" width="190" height="50" as="geometry" />
        </mxCell>
        <mxCell id="9yW6cP3k6XNtZJr0AF5J-41" value="" style="shape=cylinder3;whiteSpace=wrap;html=1;boundedLbl=1;backgroundOutline=1;size=15;" parent="1" vertex="1">
          <mxGeometry x="-600" y="-89" width="80" height="70" as="geometry" />
        </mxCell>
        <mxCell id="9yW6cP3k6XNtZJr0AF5J-42" value="" style="shape=cylinder3;whiteSpace=wrap;html=1;boundedLbl=1;backgroundOutline=1;size=15;" parent="1" vertex="1">
          <mxGeometry x="-25" y="-90" width="80" height="70" as="geometry" />
        </mxCell>
        <mxCell id="9yW6cP3k6XNtZJr0AF5J-43" value="" style="shape=cylinder3;whiteSpace=wrap;html=1;boundedLbl=1;backgroundOutline=1;size=15;" parent="1" vertex="1">
          <mxGeometry x="410" y="-90" width="80" height="70" as="geometry" />
        </mxCell>
        <mxCell id="9yW6cP3k6XNtZJr0AF5J-44" value="dbt Cloud" style="text;html=1;align=center;verticalAlign=middle;whiteSpace=wrap;rounded=0;" parent="1" vertex="1">
          <mxGeometry x="-40" y="90" width="120" height="60" as="geometry" />
        </mxCell>
        <mxCell id="9yW6cP3k6XNtZJr0AF5J-45" value="dbt_dev" style="text;html=1;align=center;verticalAlign=middle;whiteSpace=wrap;rounded=0;" parent="1" vertex="1">
          <mxGeometry x="-590" y="-60" width="60" height="30" as="geometry" />
        </mxCell>
        <mxCell id="9yW6cP3k6XNtZJr0AF5J-46" value="dbt" style="text;html=1;align=center;verticalAlign=middle;whiteSpace=wrap;rounded=0;" parent="1" vertex="1">
          <mxGeometry x="420" y="-60" width="60" height="30" as="geometry" />
        </mxCell>
        <mxCell id="9yW6cP3k6XNtZJr0AF5J-47" value="dbt_cloud_pr" style="text;html=1;align=center;verticalAlign=middle;whiteSpace=wrap;rounded=0;" parent="1" vertex="1">
          <mxGeometry x="-15" y="-60" width="60" height="30" as="geometry" />
        </mxCell>
        <mxCell id="9yW6cP3k6XNtZJr0AF5J-48" value="staging" style="text;html=1;align=center;verticalAlign=middle;whiteSpace=wrap;rounded=0;" parent="1" vertex="1">
          <mxGeometry x="-15" y="-20" width="60" height="30" as="geometry" />
        </mxCell>
        <mxCell id="9yW6cP3k6XNtZJr0AF5J-49" value="development" style="text;html=1;align=center;verticalAlign=middle;whiteSpace=wrap;rounded=0;" parent="1" vertex="1">
          <mxGeometry x="-590" y="-20" width="60" height="30" as="geometry" />
        </mxCell>
        <mxCell id="9yW6cP3k6XNtZJr0AF5J-50" value="production" style="text;html=1;align=center;verticalAlign=middle;whiteSpace=wrap;rounded=0;" parent="1" vertex="1">
          <mxGeometry x="420" y="-20" width="60" height="30" as="geometry" />
        </mxCell>
        <mxCell id="9yW6cP3k6XNtZJr0AF5J-51" value="" style="rounded=0;whiteSpace=wrap;html=1;" parent="1" vertex="1">
          <mxGeometry x="-50" y="80" width="680" height="180" as="geometry" />
        </mxCell>
        <mxCell id="9yW6cP3k6XNtZJr0AF5J-53" value="dbt Cloud" style="text;html=1;align=center;verticalAlign=middle;whiteSpace=wrap;rounded=0;" parent="1" vertex="1">
          <mxGeometry x="-65" y="80" width="150" height="50" as="geometry" />
        </mxCell>
        <mxCell id="9yW6cP3k6XNtZJr0AF5J-84" style="edgeStyle=none;curved=1;rounded=0;orthogonalLoop=1;jettySize=auto;html=1;exitX=0.5;exitY=1;exitDx=0;exitDy=0;entryX=0.75;entryY=0;entryDx=0;entryDy=0;fontSize=12;startSize=8;endSize=8;" parent="1" source="9yW6cP3k6XNtZJr0AF5J-54" target="9yW6cP3k6XNtZJr0AF5J-70" edge="1">
          <mxGeometry relative="1" as="geometry" />
        </mxCell>
        <mxCell id="9yW6cP3k6XNtZJr0AF5J-54" value="" style="rounded=1;whiteSpace=wrap;html=1;" parent="1" vertex="1">
          <mxGeometry x="-25" y="140" width="110" height="60" as="geometry" />
        </mxCell>
        <mxCell id="9yW6cP3k6XNtZJr0AF5J-85" style="edgeStyle=none;curved=1;rounded=0;orthogonalLoop=1;jettySize=auto;html=1;exitX=0.5;exitY=1;exitDx=0;exitDy=0;entryX=0.5;entryY=0;entryDx=0;entryDy=0;fontSize=12;startSize=8;endSize=8;" parent="1" source="9yW6cP3k6XNtZJr0AF5J-55" target="9yW6cP3k6XNtZJr0AF5J-72" edge="1">
          <mxGeometry relative="1" as="geometry" />
        </mxCell>
        <mxCell id="9yW6cP3k6XNtZJr0AF5J-55" value="" style="rounded=1;whiteSpace=wrap;html=1;" parent="1" vertex="1">
          <mxGeometry x="170" y="140" width="110" height="60" as="geometry" />
        </mxCell>
        <mxCell id="9yW6cP3k6XNtZJr0AF5J-90" style="edgeStyle=none;curved=1;rounded=0;orthogonalLoop=1;jettySize=auto;html=1;exitX=0.5;exitY=1;exitDx=0;exitDy=0;entryX=1;entryY=0.25;entryDx=0;entryDy=0;fontSize=12;startSize=8;endSize=8;" parent="1" source="9yW6cP3k6XNtZJr0AF5J-56" target="9yW6cP3k6XNtZJr0AF5J-75" edge="1">
          <mxGeometry relative="1" as="geometry" />
        </mxCell>
        <mxCell id="9yW6cP3k6XNtZJr0AF5J-56" value="" style="rounded=1;whiteSpace=wrap;html=1;fontStyle=1" parent="1" vertex="1">
          <mxGeometry x="350" y="140" width="110" height="60" as="geometry" />
        </mxCell>
        <mxCell id="9yW6cP3k6XNtZJr0AF5J-57" value="" style="rounded=1;whiteSpace=wrap;html=1;" parent="1" vertex="1">
          <mxGeometry x="520" y="140" width="110" height="60" as="geometry" />
        </mxCell>
        <mxCell id="9yW6cP3k6XNtZJr0AF5J-58" value="Slim CI Job&lt;div&gt;(dev branch)&lt;/div&gt;" style="text;html=1;align=center;verticalAlign=middle;whiteSpace=wrap;rounded=0;" parent="1" vertex="1">
          <mxGeometry x="-25" y="155" width="110" height="30" as="geometry" />
        </mxCell>
        <mxCell id="9yW6cP3k6XNtZJr0AF5J-62" style="edgeStyle=none;curved=1;rounded=0;orthogonalLoop=1;jettySize=auto;html=1;entryX=1;entryY=0.5;entryDx=0;entryDy=0;fontSize=12;startSize=8;endSize=8;" parent="1" source="9yW6cP3k6XNtZJr0AF5J-58" target="9yW6cP3k6XNtZJr0AF5J-58" edge="1">
          <mxGeometry relative="1" as="geometry" />
        </mxCell>
        <mxCell id="9yW6cP3k6XNtZJr0AF5J-87" style="edgeStyle=none;curved=1;rounded=0;orthogonalLoop=1;jettySize=auto;html=1;exitX=0;exitY=0.5;exitDx=0;exitDy=0;entryX=0.25;entryY=0;entryDx=0;entryDy=0;fontSize=12;startSize=8;endSize=8;" parent="1" source="9yW6cP3k6XNtZJr0AF5J-63" target="9yW6cP3k6XNtZJr0AF5J-79" edge="1">
          <mxGeometry relative="1" as="geometry" />
        </mxCell>
        <mxCell id="9yW6cP3k6XNtZJr0AF5J-63" value="Slim CI Job&lt;div&gt;(UAT branch)&lt;/div&gt;" style="text;html=1;align=center;verticalAlign=middle;whiteSpace=wrap;rounded=0;" parent="1" vertex="1">
          <mxGeometry x="170" y="155" width="110" height="30" as="geometry" />
        </mxCell>
        <mxCell id="9yW6cP3k6XNtZJr0AF5J-89" style="edgeStyle=none;curved=1;rounded=0;orthogonalLoop=1;jettySize=auto;html=1;exitX=1;exitY=0.75;exitDx=0;exitDy=0;entryX=0;entryY=0.75;entryDx=0;entryDy=0;fontSize=12;startSize=8;endSize=8;" parent="1" source="9yW6cP3k6XNtZJr0AF5J-64" target="9yW6cP3k6XNtZJr0AF5J-65" edge="1">
          <mxGeometry relative="1" as="geometry" />
        </mxCell>
        <mxCell id="9yW6cP3k6XNtZJr0AF5J-64" value="CD&lt;div&gt;(Merge Job)&lt;/div&gt;" style="text;html=1;align=center;verticalAlign=middle;whiteSpace=wrap;rounded=0;" parent="1" vertex="1">
          <mxGeometry x="350" y="155" width="110" height="30" as="geometry" />
        </mxCell>
        <mxCell id="9yW6cP3k6XNtZJr0AF5J-65" value="Nightly Run" style="text;html=1;align=center;verticalAlign=middle;whiteSpace=wrap;rounded=0;" parent="1" vertex="1">
          <mxGeometry x="520" y="155" width="110" height="30" as="geometry" />
        </mxCell>
        <mxCell id="9yW6cP3k6XNtZJr0AF5J-66" value="" style="rounded=1;whiteSpace=wrap;html=1;" parent="1" vertex="1">
          <mxGeometry x="-680" y="190" width="120" height="60" as="geometry" />
        </mxCell>
        <mxCell id="9yW6cP3k6XNtZJr0AF5J-67" value="" style="rounded=1;whiteSpace=wrap;html=1;" parent="1" vertex="1">
          <mxGeometry x="-500" y="190" width="120" height="60" as="geometry" />
        </mxCell>
        <mxCell id="9yW6cP3k6XNtZJr0AF5J-81" style="edgeStyle=none;curved=1;rounded=0;orthogonalLoop=1;jettySize=auto;html=1;exitX=1;exitY=0.5;exitDx=0;exitDy=0;entryX=0;entryY=0.5;entryDx=0;entryDy=0;fontSize=12;startSize=8;endSize=8;" parent="1" source="9yW6cP3k6XNtZJr0AF5J-68" target="9yW6cP3k6XNtZJr0AF5J-69" edge="1">
          <mxGeometry relative="1" as="geometry" />
        </mxCell>
        <mxCell id="9yW6cP3k6XNtZJr0AF5J-68" value="development" style="text;html=1;align=center;verticalAlign=middle;whiteSpace=wrap;rounded=0;" parent="1" vertex="1">
          <mxGeometry x="-680" y="205" width="120" height="35" as="geometry" />
        </mxCell>
        <mxCell id="9yW6cP3k6XNtZJr0AF5J-100" style="edgeStyle=none;curved=1;rounded=0;orthogonalLoop=1;jettySize=auto;html=1;exitX=0.5;exitY=0;exitDx=0;exitDy=0;entryX=0;entryY=0.75;entryDx=0;entryDy=0;fontSize=12;startSize=8;endSize=8;" parent="1" source="9yW6cP3k6XNtZJr0AF5J-69" target="9yW6cP3k6XNtZJr0AF5J-58" edge="1">
          <mxGeometry relative="1" as="geometry" />
        </mxCell>
        <mxCell id="9yW6cP3k6XNtZJr0AF5J-69" value="PR into UAT&lt;div&gt;(staging/release)&lt;/div&gt;" style="text;html=1;align=center;verticalAlign=middle;whiteSpace=wrap;rounded=0;" parent="1" vertex="1">
          <mxGeometry x="-495" y="196" width="110" height="48" as="geometry" />
        </mxCell>
        <mxCell id="9yW6cP3k6XNtZJr0AF5J-88" style="edgeStyle=none;curved=1;rounded=0;orthogonalLoop=1;jettySize=auto;html=1;exitX=0.5;exitY=1;exitDx=0;exitDy=0;entryX=0.5;entryY=0;entryDx=0;entryDy=0;fontSize=12;startSize=8;endSize=8;" parent="1" source="9yW6cP3k6XNtZJr0AF5J-70" target="9yW6cP3k6XNtZJr0AF5J-76" edge="1">
          <mxGeometry relative="1" as="geometry" />
        </mxCell>
        <mxCell id="9yW6cP3k6XNtZJr0AF5J-70" value="" style="rounded=1;whiteSpace=wrap;html=1;" parent="1" vertex="1">
          <mxGeometry x="-45" y="310" width="105" height="70" as="geometry" />
        </mxCell>
        <mxCell id="9yW6cP3k6XNtZJr0AF5J-71" value="dat-diff&lt;div&gt;between&lt;/div&gt;&lt;div&gt;stage + prod&lt;/div&gt;" style="text;html=1;align=center;verticalAlign=middle;whiteSpace=wrap;rounded=0;" parent="1" vertex="1">
          <mxGeometry x="-47.5" y="330" width="110" height="30" as="geometry" />
        </mxCell>
        <mxCell id="9yW6cP3k6XNtZJr0AF5J-86" style="edgeStyle=none;curved=1;rounded=0;orthogonalLoop=1;jettySize=auto;html=1;exitX=0.5;exitY=1;exitDx=0;exitDy=0;entryX=0.25;entryY=0;entryDx=0;entryDy=0;fontSize=12;startSize=8;endSize=8;" parent="1" source="9yW6cP3k6XNtZJr0AF5J-72" target="9yW6cP3k6XNtZJr0AF5J-74" edge="1">
          <mxGeometry relative="1" as="geometry" />
        </mxCell>
        <mxCell id="9yW6cP3k6XNtZJr0AF5J-72" value="" style="rounded=1;whiteSpace=wrap;html=1;" parent="1" vertex="1">
          <mxGeometry x="192.5" y="350" width="105" height="70" as="geometry" />
        </mxCell>
        <mxCell id="9yW6cP3k6XNtZJr0AF5J-73" value="dat-diff&lt;div&gt;between&lt;/div&gt;&lt;div&gt;stage + prod&lt;/div&gt;" style="text;html=1;align=center;verticalAlign=middle;whiteSpace=wrap;rounded=0;" parent="1" vertex="1">
          <mxGeometry x="190" y="370" width="110" height="30" as="geometry" />
        </mxCell>
        <mxCell id="9yW6cP3k6XNtZJr0AF5J-74" value="" style="rounded=1;whiteSpace=wrap;html=1;" parent="1" vertex="1">
          <mxGeometry x="240" y="500" width="110" height="60" as="geometry" />
        </mxCell>
        <mxCell id="9yW6cP3k6XNtZJr0AF5J-75" value="Merge into&lt;div&gt;Main&lt;/div&gt;" style="text;html=1;align=center;verticalAlign=middle;whiteSpace=wrap;rounded=0;" parent="1" vertex="1">
          <mxGeometry x="240" y="515" width="110" height="30" as="geometry" />
        </mxCell>
        <mxCell id="9yW6cP3k6XNtZJr0AF5J-76" value="" style="rounded=1;whiteSpace=wrap;html=1;" parent="1" vertex="1">
          <mxGeometry x="-47.5" y="650" width="110" height="60" as="geometry" />
        </mxCell>
        <mxCell id="9yW6cP3k6XNtZJr0AF5J-101" style="edgeStyle=none;curved=1;rounded=0;orthogonalLoop=1;jettySize=auto;html=1;exitX=1;exitY=0.5;exitDx=0;exitDy=0;entryX=0;entryY=0.5;entryDx=0;entryDy=0;fontSize=12;startSize=8;endSize=8;" parent="1" source="9yW6cP3k6XNtZJr0AF5J-77" target="9yW6cP3k6XNtZJr0AF5J-79" edge="1">
          <mxGeometry relative="1" as="geometry" />
        </mxCell>
        <mxCell id="9yW6cP3k6XNtZJr0AF5J-77" value="Merge into&lt;div&gt;UAT&lt;/div&gt;" style="text;html=1;align=center;verticalAlign=middle;whiteSpace=wrap;rounded=0;" parent="1" vertex="1">
          <mxGeometry x="-50" y="665" width="112.5" height="30" as="geometry" />
        </mxCell>
        <mxCell id="9yW6cP3k6XNtZJr0AF5J-78" value="" style="rounded=1;whiteSpace=wrap;html=1;" parent="1" vertex="1">
          <mxGeometry x="150" y="650" width="110" height="60" as="geometry" />
        </mxCell>
        <mxCell id="9yW6cP3k6XNtZJr0AF5J-79" value="PR into Main&lt;div&gt;(Production)&lt;/div&gt;" style="text;html=1;align=center;verticalAlign=middle;whiteSpace=wrap;rounded=0;" parent="1" vertex="1">
          <mxGeometry x="150" y="662.5" width="110" height="35" as="geometry" />
        </mxCell>
        <mxCell id="9yW6cP3k6XNtZJr0AF5J-92" value="" style="html=1;shadow=0;dashed=0;align=center;verticalAlign=middle;shape=mxgraph.arrows2.twoWayArrow;dy=0.65;dx=22;direction=south;" parent="1" vertex="1">
          <mxGeometry x="-10" y="10" width="60" height="80" as="geometry" />
        </mxCell>
        <mxCell id="9yW6cP3k6XNtZJr0AF5J-95" value="" style="html=1;shadow=0;dashed=0;align=center;verticalAlign=middle;shape=mxgraph.arrows2.twoWayArrow;dy=0.65;dx=22;direction=south;" parent="1" vertex="1">
          <mxGeometry x="150" y="10" width="60" height="80" as="geometry" />
        </mxCell>
        <mxCell id="9yW6cP3k6XNtZJr0AF5J-96" value="" style="html=1;shadow=0;dashed=0;align=center;verticalAlign=middle;shape=mxgraph.arrows2.twoWayArrow;dy=0.65;dx=22;direction=south;" parent="1" vertex="1">
          <mxGeometry x="430" y="10" width="60" height="80" as="geometry" />
        </mxCell>
        <mxCell id="9yW6cP3k6XNtZJr0AF5J-102" value="&lt;ul class=&quot;ul1&quot;&gt;&#xa;&lt;li class=&quot;li1&quot;&gt;﻿﻿Local development in development environment / branch&lt;/li&gt;&#xa;&lt;li class=&quot;li1&quot;&gt;﻿﻿Manual validation / testing&lt;/li&gt;&#xa;&lt;li class=&quot;li1&quot;&gt;﻿﻿data-diff&lt;/li&gt;&#xa;&lt;/ul&gt;" style="text;whiteSpace=wrap;html=1;" parent="1" vertex="1">
          <mxGeometry x="-710" y="270" width="200" height="150" as="geometry" />
        </mxCell>
        <mxCell id="9yW6cP3k6XNtZJr0AF5J-103" value="PR&#xa;Approved" style="text;whiteSpace=wrap;html=1;" parent="1" vertex="1">
          <mxGeometry x="10" y="460" width="80" height="50" as="geometry" />
        </mxCell>
        <mxCell id="9yW6cP3k6XNtZJr0AF5J-104" value="PR&#xa;Approved" style="text;whiteSpace=wrap;html=1;" parent="1" vertex="1">
          <mxGeometry x="280" y="430" width="80" height="50" as="geometry" />
        </mxCell>
        <mxCell id="9yW6cP3k6XNtZJr0AF5J-105" value="CD to&#xa;automatically deploy code changes + get instant feedback on latest build changes" style="text;whiteSpace=wrap;html=1;" parent="1" vertex="1">
          <mxGeometry x="480" y="350" width="100" height="50" as="geometry" />
        </mxCell>
        <mxCell id="9yW6cP3k6XNtZJr0AF5J-106" value="Note: CI/CD Jobs, data-diff reports, and PR schema builds are automatically triggered by PRs or&amp;nbsp;&lt;div&gt;merges&lt;/div&gt;" style="text;whiteSpace=wrap;html=1;" parent="1" vertex="1">
          <mxGeometry x="440" y="-350" width="200" height="100" as="geometry" />
        </mxCell>
      </root>
    </mxGraphModel>
  </diagram>
</mxfile>
